<svg width="100" height="100" xmlns="http://www.w3.org/2000/svg">
  <rect width="100" height="100" x="0" y="0" rx="0" ry="0" fill="white" stroke="black" stroke-width="2" />
  <path d="M 45 43 A 16 16 0 0 0 13 43 L 13 68 L 45 68 L 45 43" stroke="#808080" fill="black" />
  <ellipse rx="5" ry="5" cx="28" cy="42" fill="white" />
  <ellipse rx="2" ry="2" cx="28" cy="42" fill="black" />
  <polygon points="35,50 45,57 70,50 45,43" style="fill:orange;stroke:#404040" />
  <line x1="35" y1="50" x2="70" y2="50" style="stroke:black" />
  <path d="M 90 10 L 65 10 L 65 40 L 85 50 L 65 60 L 65 90 L 90 90" stroke="black" fill="brown" />
  <path d="M 62 42 L 78 50 L 62 58" stroke="black" fill="none" />
</svg>
