<svg width="100" height="100" xmlns="http://www.w3.org/2000/svg">
  <defs>
    <radialGradient id="grad1" cx="50%" cy="50%" r="80%" fx="50%" fy="50%">
      <stop offset="0%" stop-color="red" />
      <stop offset="100%" stop-color="yellow" />
    </radialGradient>
  </defs>
  <rect width="100" height="100" x="0" y="0" rx="0" ry="0" fill="white" stroke="black" stroke-width="2" />
  <circle r="40" cx="50" cy="50" fill="url(#grad1)" stroke="black" stroke-width="1"/>
  <ellipse rx="6" ry="8" cx="35" cy="40" fill="white" stroke="black" stroke-width="1"/>
  <ellipse rx="6" ry="8" cx="65" cy="40" fill="white" stroke="black" stroke-width="1"/>
  <circle r="3" cx="35" cy="40" fill="black" stroke="none"/>
  <circle r="3" cx="65" cy="40" fill="black" stroke="none"/>
  <polygon points="40,30 22,25 28,25 46,30" style="fill:black" />
  <polygon points="60,30 78,25 72,25 54,30" style="fill:black" />
  <path d="M 35 65 C 35 82 65 82 65 65 C 65 69 35 69 35 65" fill="black" stroke="black"/>
  <polygon points="40,67 43,73 46,68" style="fill:white;stroke:none" />
  <polygon points="60,67 57,73 54,68" style="fill:white;stroke:none" />
</svg>
