<svg width="100" height="100" xmlns="http://www.w3.org/2000/svg">
  <rect width="100" height="100" x="0" y="0" rx="0" ry="0" fill="#CCCCFF" stroke="none" />
  <polygon points="10,10 10,60 40,40" style="fill:black" />
  <polygon points="15,20 15,35 25,30" style="fill:grey" />
  <polygon points="90,10 90,60 60,40" style="fill:black" />
  <polygon points="85,20 85,35 75,30" style="fill:grey" />
  <ellipse rx="40" ry="30" cx="50" cy="60"
  style="fill:black" />
  <circle r="6" cx="35" cy="50" fill="white" />
  <circle r="3" cx="35" cy="50" fill="black" />
  <circle r="6" cx="65" cy="50" fill="white" />
  <circle r="3" cx="65" cy="50" fill="black" />
  <polygon points="50,67 45,60 55,60" style="fill:brown" />
  <line x1="30" y1="70" x2="45" y2="67" stroke="grey" />
  <line x1="70" y1="70" x2="55" y2="67" stroke="grey" />
  <line x1="25" y1="63" x2="42" y2="64" stroke="grey" />
  <line x1="75" y1="63" x2="58" y2="64" stroke="grey" />
  <path d="M 45 75 C 45 78 55 78 55 75" fill="none" stroke="grey"/>
</svg>
