<svg width="100" height="200" xmlns="http://www.w3.org/2000/svg">
  <path d="M 25 130 A 10 10 0 0 1 15 120 L 15 100 A 5 5 0 0 0 5 100 L 5 120 A 20 20 0 0 0 25 140 L 45 140 L 45 130 L 25 130" fill="black" stoke="#404040"/>
  <path d="M 60 120 L 65 140 L 55 160 A 2 5 0 0 0 55 170 L 75 170 A 5 5 0 0 0 75 160 L 65 160 L 75 140 L 70 120" stroke="#808080" fill="black" />
  <path d="M 70 167 L 75 167 A 3 2 0 0 0 78 165 L 70 165 M 70 167" stroke="none" fill="white"/>
  <path d="M 75 105 L 85 105 A 10 5 0 0 0 85 95 L 75 95" fill="black" stroke="#808080" />
  <path d="M 85 100 L 92 100 A 5 3 0 0 1 85 103" stroke="none" fill="white"/>
  <path d="M 55 77 A 28 38 0 0 1 55 153 A 23 38 0 0 1 55 77" stroke="#404040" fill="black" />
  <ellipse cx="62" cy="117" rx="18" ry="25" stroke="#404040" fill="white" />
  <polygon points="60,10 90,60 55,40" style="fill:black" />
  <path d="M 50 30 A 40 30 0 0 1 50 90 A 25 30 0 0 1 50 30" fill="black" stroke="#404040"/>
  <path d="M 45 40 L 17 20 L 25 55" fill="black" stroke="#404040" />
  <path d="M 40 39 L 21 25 L 25 50 A 22 18 0 0 1 40 39" fill="grey" stroke="none" />
  <ellipse rx="5" ry="6" cx="50" cy="55" fill="white" />
  <ellipse rx="2" ry="3" cx="50" cy="55" fill="black" />
  <ellipse rx="5" ry="6" cx="75" cy="50" fill="white" />
  <ellipse rx="2" ry="3" cx="75" cy="50" fill="black" />
  <polygon points="68,67 62,60 70,60" style="fill:brown" />
  <line x1="55" y1="70" x2="65" y2="67" stroke="grey" />
  <line x1="77" y1="67" x2="70" y2="67" stroke="grey" />
  <line x1="50" y1="65" x2="62" y2="64" stroke="grey" />
  <line x1="80" y1="60" x2="73" y2="64" stroke="grey" />
  <path d="M 60 75 C 60 78 70 78 75 72" fill="none" stroke="grey"/>
  <path d="M 35 100 L 35 105 A 20 20 0 0 0 55 125 L 65 125 A 10 5 0 0 0 65 115 L 55 115 A 10 10 0 0 1 45 105 L 45 100" fill="black" stroke="#808080" />
  <path d="M 65 120 L 72 120 A 5 3 0 0 1 65 123" stroke="none" fill="white"/>
  <path d="M 40 140 L 45 160 L 35 180 A 2 5 0 0 0 35 190 L 55 190 A 5 5 0 0 0 55 180 L 45 180 L 55 160 L 50 140" stroke="#808080" fill="black" />
  <path d="M 50 187 L 55 187 A 3 2 0 0 0 58 185 L 50 185 M 50 187" stroke="none" fill="white"/>
</svg>
