<svg width="100" height="100" xmlns="http://www.w3.org/2000/svg">
  <polygon points="20,15 10,60 40,40" style="fill:black" />
  <polygon points="21,20 18,35 27,30" style="fill:grey" />
  <polygon points="80,15 90,60 60,40" style="fill:black" />
  <polygon points="79,20 82,35 73,30" style="fill:grey" />
  <ellipse rx="40" ry="30" cx="50" cy="60"
  style="fill:black" />
  <line x1="31" y1="46" x2="39" y2="54" stroke="#808080" stroke-width="2" />
  <line x1="31" y1="54" x2="39" y2="46" stroke="#808080" stroke-width="2" />
  <line x1="69" y1="46" x2="61" y2="54" stroke="#808080" stroke-width="2" />
  <line x1="69" y1="54" x2="61" y2="46" stroke="#808080" stroke-width="2" />
  <polygon points="50,67 45,60 55,60" style="fill:brown" />
  <line x1="30" y1="75" x2="45" y2="67" stroke="grey" />
  <line x1="70" y1="75" x2="55" y2="67" stroke="grey" />
  <line x1="25" y1="68" x2="42" y2="64" stroke="grey" />
  <line x1="75" y1="68" x2="58" y2="64" stroke="grey" />
  <path d="M 45 75 C 45 76 50 76 50 75 C 50 74 55 74 55 75" fill="none" stroke="grey"/>
</svg>
