<svg width="100" height="100" xmlns="http://www.w3.org/2000/svg">
  <circle r="40" cx="50" cy="50" fill="#EEEEFF" stroke="brown" stroke-width="5"/>
  <line x1="50" y1="12" x2="50" y2="17" stroke="black" stroke-width="2" />
  <line x1="50" y1="88" x2="50" y2="83" stroke="black" stroke-width="2" />
  <line x1="12" y1="50" x2="17" y2="50" stroke="black" stroke-width="2" />
  <line x1="88" y1="50" x2="83" y2="50" stroke="black" stroke-width="2" />
  <line x1="17" y1="31" x2="21" y2="33" stroke="black" stroke-width="2" />
  <line x1="31" y1="17" x2="33" y2="21" stroke="black" stroke-width="2" />
  <line x1="17" y1="69" x2="21" y2="66" stroke="black" stroke-width="2" />
  <line x1="31" y1="83" x2="33" y2="79" stroke="black" stroke-width="2" />
  <line x1="83" y1="31" x2="79" y2="33" stroke="black" stroke-width="2" />
  <line x1="69" y1="17" x2="67" y2="21" stroke="black" stroke-width="2" />
  <line x1="83" y1="69" x2="79" y2="66" stroke="black" stroke-width="2" />
  <line x1="69" y1="83" x2="67" y2="79" stroke="black" stroke-width="2" />
  <polyline points="48,53 48,25 44,25 50,15 56,25 52,25 52,53 48,53"  style="fill:#808000;stroke:#404000;stroke-width:1" />
  <polyline points="51,49 66,64 69,61 71,71 61,69 64,66 49,51 51,49"  style="fill:#808000;stroke:#404000;stroke-width:1" />
  <circle r="4" cx="50" cy="50" fill="#808000" stroke="#404000" stroke-width="1"/>
</svg>
