<svg width="100" height="100" xmlns="http://www.w3.org/2000/svg">
  <rect width="100" height="100" x="0" y="0" rx="0" ry="0" fill="white" stroke="black" stroke-width="2" />
  <circle r="40" cx="50" cy="50" fill="red" stroke="black" />
  <path d="M 30 74 L 44 64 L 46 74 L 53 62 L 66 74 L 60 58 L 76 60 L 62 49 L 76 30 L 55 38 L 46 24 L 44 38 L 26 30 L 36 46 L 26 50 L 36 56 L 30 74" fill="orange" stroke="black" />
  <path d="M 40 62 L 46 55 L 48 62 L 51 57 L 58 62 L 56 54 L 63 55 L 57 49 L 63 40 L 53 46 L 48 37 L 47 45 L 38 40 L 43 47 L 38 50 L 43 54 L 40 62" fill="yellow" stroke="black" />
</svg>
