<svg width="100" height="100" xmlns="http://www.w3.org/2000/svg">
  <rect width="100" height="100" x="0" y="0" rx="0" ry="0" fill="white" stroke="black" stroke-width="2" />
  <circle r="40" cx="50" cy="50" stroke="#FFC000" fill="#FFFFC0" />
  <path d="M 50 77 C 58 77 71 55 71 35 C 65 35 50 28 50 26 C 50 28 35 35 29 35 C 29 55 42 77 50 77" fill="#E0E0E0" stroke="black" />
  <path d="M 50 70 C 55 70 65 55 65 40 C 60 40 50 35 50 33 C 50 35 40 40 35 40 C 35 55 45 70 50 70" fill="#E0E0FF" stroke="black" />
</svg>
