<svg width="100" height="100" xmlns="http://www.w3.org/2000/svg">
  <rect width="100" height="100" x="0" y="0" rx="0" ry="0" fill="white" stroke="black" stroke-width="2" />
  <path d="M 37 50 L 60 75 L 83 50 C 105 10 60 0 60 30 C 60 0 15 10 37 50" fill="red" stroke="black"/>

  <path d="M 10 70 L 25 45 A 20 40 40 0 1 50 75 L 30 90" fill="#FFFFCC" stroke="orange" fill-opacity="0.5" />
  <path d="M 15 75 L 25 85 L 29 81 L 40 75 L 50 65 A 2 2 0 0 0 46 61 L 40 67 L 50 57 A 2 2 0 0 0 46 53 L 36 63 L 47 52 A 2 2 0 0 0 43 48 L 32 59 L 41 50 A 2 2 0 0 0 37 46 L 28 55 L 30 52 A 3 2 0 0 0 28 49 L 25 52 L 20 60 L 19 71 L 15 75" fill="pink" stroke="black"/>
  <path d="M 28 55 L 25 60 L 25 63" fill="none" stroke="black" />
  <path d="M 10 76 L 13 73 L 27 87 L 24 90" fill="brown" stroke="black" />
  <path d="M 10 76 L 10 90 L 24 90 L 24 89 L 11 76" fill="brown" stroke="none" />
</svg>
