<svg width="100" height="100" xmlns="http://www.w3.org/2000/svg">
  <rect width="54" height="10" x="23" y="10" rx="3" ry="3" fill="#805020" stroke="black" stroke-width="1" />
  <rect width="54" height="10" x="23" y="80" rx="3" ry="3" fill="#805020" stroke="black" stroke-width="1" />
  <path d="M 30 20 C 35 30 40 40 47 45 L 47 55 C 40 60 35 70 30 80 L 70 80 C 65 70 60 60 53 55 L 53 45 C 60 40 65 30 70 20 L 30 20" stroke="black" stroke-width="1" fill="#D0D0FF" />
  <polygon points="35,79 65,79 50,60" stroke="none" fill="#FFE080" />
  <polygon points="42,35 58,35 50,45" stroke="none" fill="#FFE080" />
  <rect width="2" height="18" x="49" y="43" stroke="none" fill="#FFE080" />
</svg>
