<svg width="100" height="100" xmlns="http://www.w3.org/2000/svg">
  <circle r="15" cx="28" cy="37" style="fill:black" />
  <circle r="10" cx="28" cy="37" style="fill:grey" />
  <circle r="15" cx="72" cy="37" style="fill:black" />
  <circle r="10" cx="72" cy="37" style="fill:grey" />
  <circle r="30" cx="50" cy="60" style="fill:black" />
  <circle r="6" cx="40" cy="53" fill="white" />
  <circle r="3" cx="40" cy="53" fill="black" />
  <circle r="6" cx="60" cy="53" fill="white" />
  <circle r="3" cx="60" cy="53" fill="black" />
  <circle r="3" cx="50" cy="65" fill="brown" />
  <line x1="30" y1="70" x2="45" y2="67" stroke="grey" />
  <line x1="70" y1="70" x2="55" y2="67" stroke="grey" />
  <line x1="25" y1="63" x2="42" y2="64" stroke="grey" />
  <line x1="75" y1="63" x2="58" y2="64" stroke="grey" />
  <polygon points="45,77 49,78 49,81 45,81" style="fill:white" />
  <polygon points="55,77 51,78 51,81 55,81" style="fill:white" />
  <path d="M 41 75 C 41 78 59 78 59 75" fill="none" stroke="grey"/>
</svg>
