<svg width="100" height="200" xmlns="http://www.w3.org/2000/svg">
  <path d="M 25 140 A 10 10 0 0 1 15 130 L 13 80 A 3 5 0 0 0 7 80 L 5 120 L 5 130 A 20 20 0 0 0 25 150 L 45 140 L 45 120 L 25 140" fill="black" stroke="#808080"/>
  <path d="M 60 120 L 65 140 L 55 160 A 2 5 0 0 0 55 170 L 75 170 A 5 5 0 0 0 75 160 L 65 160 L 75 140 L 70 120" stroke="#808080" fill="black" />
  <path d="M 70 167 L 75 167 A 3 2 0 0 0 78 165 L 70 165 M 70 167" stroke="none" fill="white"/>
  <path d="M 75 105 L 85 105 A 10 5 0 0 0 85 95 L 75 95" fill="black" stroke="#808080" />
  <path d="M 85 100 L 92 100 A 5 3 0 0 1 85 103" stroke="none" fill="white"/>
  <path d="M 55 77 A 30 38 0 0 1 55 153 A 25 38 0 0 1 55 77" stroke="#404040" fill="black" />
  <circle r="15" cx="58" cy="33" style="fill:black" />
  <circle r="30" cx="55" cy="60" style="fill:black" stroke="#808080" />
  <ellipse rx="5" ry="6" cx="50" cy="55" fill="white" />
  <ellipse rx="2" ry="3" cx="50" cy="55" fill="black" />
  <ellipse rx="5" ry="6" cx="70" cy="50" fill="white" />
  <ellipse rx="2" ry="3" cx="70" cy="50" fill="black" />
  <circle r="3" cx="63" cy="63" fill="brown" />
  <path d="M 28 52 A 15 15 0 1 1 43 37 L 43 39" fill="black" stroke="#808080" />
  <path d="M 28 47 A 10 10 0 1 1 38 37 L 38 47" fill="grey" />
  <line x1="43" y1="70" x2="58" y2="67" stroke="grey" />
  <line x1="81" y1="66" x2="68" y2="65" stroke="grey" />
  <line x1="38" y1="63" x2="55" y2="64" stroke="grey" />
  <line x1="80" y1="60" x2="68" y2="63" stroke="grey" />
  <path d="M 55 75 C 55 78 73 78 73 70" fill="none" stroke="grey"/>
  <polygon points="62,77 66,77 66,79 62,79" style="fill:white" />
  <polygon points="71,75 68,76 68,79 71,77" style="fill:white" />
  <path d="M 40 100 L 40 105 A 20 20 0 0 0 60 125 L 70 125 A 10 5 0 0 0 70 115 L 60 115 A 10 10 0 0 1 50 105 L 50 100" fill="black" stroke="#808080" />
  <path d="M 70 120 L 77 120 A 5 3 0 0 1 70 123" stroke="none" fill="white"/>
  <path d="M 40 140 L 45 155 L 35 170 A 2 5 0 0 0 35 180 L 55 180 A 5 5 0 0 0 55 170 L 45 170 L 55 155 L 50 140" stroke="#808080" fill="black" />
  <path d="M 50 177 L 55 177 A 3 2 0 0 0 58 175 L 50 175 M 50 177" stroke="none" fill="white"/>
</svg>
