<svg width="100" height="100" xmlns="http://www.w3.org/2000/svg">
  <rect width="100" height="100" x="0" y="0" rx="0" ry="0" fill="white" stroke="black" stroke-width="2" />
  <circle r="8" cx="60" cy="30" fill="white" stroke="black" stroke-width="2" />
  <line x1="60" x2="60" y1="38" y2="60" stroke="black" stroke-width="2" />
  <line x1="60" x2="50" y1="45" y2="55" stroke="black" stroke-width="2" />  
  <line x1="60" x2="70" y1="45" y2="55" stroke="black" stroke-width="2" />
  <line x1="60" x2="50" y1="60" y2="80" stroke="black" stroke-width="2" />
  <line x1="60" x2="70" y1="60" y2="80" stroke="black" stroke-width="2" />

  <circle r="8" cx="40" cy="35" fill="white" stroke="black" stroke-width="2" />
  <line x1="40" x2="40" y1="43" y2="65" stroke="black" stroke-width="2" />
  <line x1="40" x2="30" y1="50" y2="60" stroke="black" stroke-width="2" />  
  <line x1="40" x2="50" y1="50" y2="60" stroke="black" stroke-width="2" />
  <line x1="40" x2="30" y1="65" y2="85" stroke="black" stroke-width="2" />
  <line x1="40" x2="50" y1="65" y2="85" stroke="black" stroke-width="2" />

  <circle r="8" cx="80" cy="35" fill="white" stroke="black" stroke-width="2" />
  <line x1="80" x2="80" y1="43" y2="65" stroke="black" stroke-width="2" />
  <line x1="80" x2="70" y1="50" y2="60" stroke="black" stroke-width="2" />  
  <line x1="80" x2="90" y1="50" y2="60" stroke="black" stroke-width="2" />
  <line x1="80" x2="70" y1="65" y2="85" stroke="black" stroke-width="2" />
  <line x1="80" x2="90" y1="65" y2="85" stroke="black" stroke-width="2" />

  <rect width="40" height="40" x="10" y="50" fill="#CCCCCC" fill-opacity="0.5" />
  <circle r="13" cx="30" cy="70" fill="none" stroke="red" stroke-width="2"/>
  <circle r="8" cx="30" cy="70" fill="none" stroke="red" stroke-width="2"/>
  <line x1="12" y1="70" x2="48" y2="70" style="stroke:red;stroke-width:2" />
  <line x1="30" y1="52" x2="30" y2="88" style="stroke:red;stroke-width:2" />
  <path d="M 10 60 L 10 50 L 20 50" stroke="red" stroke-width="2" fill="none" />
  <path d="M 40 50 L 50 50 L 50 60" stroke="red" stroke-width="2" fill="none" />
  <path d="M 10 80 L 10 90 L 20 90" stroke="red" stroke-width="2" fill="none" />
  <path d="M 40 90 L 50 90 L 50 80" stroke="red" stroke-width="2" fill="none" />

  <path d="M 15 10 L 19 10 L 19 15 L 24 15 L 24 19 L 19 19 L 19 24 L 15 24 L 15 19 L 10 19 L 10 15 L 15 15 L 15 10" stroke="none" fill="black" />
</svg>
