<svg width="100" height="100" xmlns="http://www.w3.org/2000/svg">
  <rect width="100" height="100" x="0" y="0" rx="0" ry="0" fill="#FFFFCC" stroke="black" stroke-width="2" />
  <circle r="8" cx="30" cy="30" fill="white" stroke="black" stroke-width="2" />
  <line x1="30" x2="30" y1="38" y2="60" stroke="black" stroke-width="2" />
  <line x1="30" x2="20" y1="45" y2="55" stroke="black" stroke-width="2" />  
  <line x1="30" x2="40" y1="45" y2="55" stroke="black" stroke-width="2" />
  <line x1="30" x2="20" y1="60" y2="80" stroke="black" stroke-width="2" />
  <line x1="30" x2="40" y1="60" y2="80" stroke="black" stroke-width="2" />
  <path d="M 57 61 A 12 15 0 1 0 69 46 L 69 53 A 6 8 0 1 1 63 61 L 57 61" fill="black" stroke="none" />
  <path d="M 57 39 A 12 15 0 1 1 69 54 L 69 47 A 6 8 0 1 0 63 39 L 57 39" fill="black" stroke="none" />
</svg>
