<svg width="100" height="100" xmlns="http://www.w3.org/2000/svg">
  <path d="M 25 60 L 25 20 L 45 30 L 45 60" fill="black" stroke="none"/>
  <path d="M 29 55 L 29 25 L 41 30 L 41 50" fill="grey" stroke="none"/>
  <path d="M 25 20 L 45 30 C 30 65 10 35 25 20" fill="black" stroke="#404040"/>
  <path d="M 75 60 L 75 40 C 75 0 55 0 55 40 L 55 60" fill="black" stroke="none"/>
  <path d="M 71 55 L 71 40 C 71 5 59 5 59 40 L 59 50" fill="grey" stroke="none"/>
  <ellipse rx="30" ry="25" cx="50" cy="70"
  style="fill:black" />
  <line x1="36" y1="59" x2="44" y2="67" stroke="#808080" stroke-width="2" />
  <line x1="36" y1="67" x2="44" y2="59" stroke="#808080" stroke-width="2" />
  <line x1="64" y1="59" x2="56" y2="67" stroke="#808080" stroke-width="2" />
  <line x1="64" y1="67" x2="56" y2="59" stroke="#808080" stroke-width="2" />
  <polygon points="50,70 46,76 54,76" style="fill:brown" />
  <polygon points="45,82 49,82 49,86 45,86" style="fill:white" />
  <path d="M 41 83 C 41 81 59 81 59 83" fill="none" stroke="grey"/>
</svg>
