<svg width="100" height="100" xmlns="http://www.w3.org/2000/svg">
  <path d="M 25 60 L 25 40 C 25 0 45 0 45 40 L 45 60" fill="black" stroke="none"/>
  <path d="M 29 55 L 29 40 C 29 5 41 5 41 40 L 41 50" fill="grey" stroke="none"/>
  <path d="M 75 60 L 75 40 C 75 0 55 0 55 40 L 55 60" fill="black" stroke="none"/>
  <path d="M 71 55 L 71 40 C 71 5 59 5 59 40 L 59 50" fill="grey" stroke="none"/>
  <ellipse rx="30" ry="25" cx="50" cy="70"
  style="fill:black" />
  <circle r="6" cx="40" cy="63" fill="white" />
  <circle r="3" cx="40" cy="63" fill="black" />
  <circle r="6" cx="60" cy="63" fill="white" />
  <circle r="3" cx="60" cy="63" fill="black" />
  <polygon points="50,70 46,76 54,76" style="fill:brown" />
  <polygon points="45,82 49,83 49,86 45,86" style="fill:white" />
  <polygon points="55,82 51,83 51,86 55,86" style="fill:white" />
  <path d="M 41 80 C 41 83 59 83 59 80" fill="none" stroke="grey"/>
</svg>
