<svg width="100" height="100" xmlns="http://www.w3.org/2000/svg">
  <rect width="100" height="100" x="0" y="0" rx="0" ry="0" fill="white" stroke="black" stroke-width="2" />
  <circle r="8" cx="70" cy="30" fill="white" stroke="black" stroke-width="2" />
  <line x1="70" x2="70" y1="38" y2="60" stroke="black" stroke-width="2" />
  <line x1="70" x2="60" y1="45" y2="55" stroke="black" stroke-width="2" />  
  <line x1="70" x2="80" y1="45" y2="55" stroke="black" stroke-width="2" />
  <line x1="70" x2="60" y1="60" y2="80" stroke="black" stroke-width="2" />
  <line x1="70" x2="80" y1="60" y2="80" stroke="black" stroke-width="2" />

  <rect width="40" height="40" x="10" y="50" fill="#CCCCCC" fill-opacity="0.5" />
  <circle r="13" cx="30" cy="70" fill="none" stroke="red" stroke-width="2"/>
  <circle r="8" cx="30" cy="70" fill="none" stroke="red" stroke-width="2"/>
  <line x1="12" y1="70" x2="48" y2="70" style="stroke:red;stroke-width:2" />
  <line x1="30" y1="52" x2="30" y2="88" style="stroke:red;stroke-width:2" />
  <path d="M 19 25 L 19 10 L 17 10 L 12 15 L 15 15  L 16 14 L 16 25 L 19 25" stroke="none" fill="black" />
</svg>
