<svg width="100" height="100" xmlns="http://www.w3.org/2000/svg">
  <rect width="100" height="100" x="0" y="0" rx="0" ry="0" fill="#FFA000" stroke="black" stroke-width="2" />
  <circle r="20" cx="50" cy="50" fill="#FFFF00" stroke="black" stroke-width="1"/>
  <path d="M 45 25 A 25 25 0 0 1 55 25 L 50 10 L 45 25" stroke="black" fill="#FFFF80" />
  <path d="M 45 75 A 25 25 0 0 1 55 75 L 50 90 L 45 75" stroke="black" fill="#FFFF80" />
  <path d="M 25 45 A 25 25 0 0 1 25 55 L 10 50 L 25 45" stroke="black" fill="#FFFF80" />
  <path d="M 75 45 A 25 25 0 0 1 75 55 L 90 50 L 75 45" stroke="black" fill="#FFFF80" />
  <path d="M 29 35 A 25 25 0 0 1 35 29 L 20 20 L 29 35" stroke="black" fill="#FFFF80" />
  <path d="M 71 35 A 25 25 0 0 1 65 29 L 80 20 L 71 35" stroke="black" fill="#FFFF80" />
  <path d="M 65 71 A 25 25 0 0 1 71 65 L 80 80 L 65 71" stroke="black" fill="#FFFF80" />
  <path d="M 35 71 A 25 25 0 0 1 29 65 L 20 80 L 35 71" stroke="black" fill="#FFFF80" />
</svg>
