<svg width="100" height="100" xmlns="http://www.w3.org/2000/svg">
  <rect width="100" height="100" x="0" y="0" rx="0" ry="0" fill="white" stroke="black" stroke-width="2" />
  <path d="M 22 52 L 35 78 L 47 72 L 34 46" stroke="black" fill="black" />
  <path d="M 10 32 L 26 64 L 42 56 L 19 10" stroke="black" fill="#5C8EB4" />
  <rect width="9" height="22" x="10" y="10" stroke="none" fill="#5C8EB4" />
  <path d="M 28 68 L 34 80 L 44 75 L 43 73 C 45 72 52 71 54 70 L 64 65 A 5 5 0 0 0 60 57 C 50 59 47 59 44 60 C 40 62 35 69 27 68" stroke="black" fill="brown" />
  <path d="M 20 85 A 40 40 0 0 0 75 73 L 77 80 L 79 66 L 68 68 L 73 70 A 38 38 0 0 1 22 80 L 20 85" fill="red" stroke="none" />
  <path d="M 67 60 L 73 53 L 75 60 L 78 55 L 85 60 L 83 52 L 90 53 L 84 47 L 90 38 L 80 44 L 75 35 L 74 43 L 65 38 L 70 45 L 65 48 L 70 52 L 67 60" fill="yellow" stroke="black" />
</svg>
